<?xml version="1.0" encoding="utf-8"?>
<!-- Generator: Adobe Illustrator 21.0.0, SVG Export Plug-In . SVG Version: 6.00 Build 0)  -->
<svg version="1.1" id="Ebene_1" xmlns="http://www.w3.org/2000/svg" xmlns:xlink="http://www.w3.org/1999/xlink" x="0px" y="0px"
	 viewBox="0 0 601.657 89.444" enable-background="new 0 0 601.657 89.444" xml:space="preserve">
<g>
	<defs>
		<rect id="SVGID_1_" width="509.722" height="89.444"/>
	</defs>
	<clipPath id="SVGID_2_">
		<use xlink:href="#SVGID_1_"  overflow="visible"/>
	</clipPath>
	<path clip-path="url(#SVGID_2_)" fill="#8F2D7E" d="M497.955,47.76c0,3.461-3.461,3.461-3.461,3.461h-16.611V26.303h16.611
		c3.461,0,3.461,3.461,3.461,3.461V47.76z M509.722,65.756V17.305c0,0,0-3.461-3.46-3.461h-51.913v55.373h51.913
		C509.722,69.217,509.722,65.756,509.722,65.756 M426.07,13.844v16.612l-19.38-16.612h-20.765v55.373h23.533V32.531l16.611,14.536
		v22.149h12.459V13.844H426.07z M350.33,51.913l3.559-13.151l3.559,13.151H350.33z M362.194,69.217h13.845l-16.613-55.373h-22.149
		l-16.61,55.373h24.916l1.287-4.845h14.041L362.194,69.217z M247.494,69.217h69.217V55.374h-41.53V0.001h-27.687V69.217z"/>
	<path clip-path="url(#SVGID_2_)" fill="#23DDFD" d="M229.696,13.844h-23.534v55.373h23.534V13.844z M161.471,51.221v-6.229h26.302
		V32.532h-26.302v-6.229h20.765V13.844h-44.299v55.373h55.373V51.221H161.471z M110.151,31.84c0,0,0,3.461-3.46,3.461h-15.92v-8.998
		h15.92c3.46,0,3.46,3.461,3.46,3.461V31.84z M122.61,13.844H67.237v55.373h23.534V47.76h0.692l16.612,21.457h14.535L105.998,47.76
		h16.612V13.844z M23.534,35.301v-8.998h20.765V13.844H0v55.373h23.534v-15.92h31.839V35.301H23.534z"/>
	<path clip-path="url(#SVGID_2_)" fill="#8F2D7E" d="M486.047,64.264h23.444v2.779c-0.935,3.437-0.676,7.708-0.869,11.981
		c-0.148,3.255,0.533,6.65-0.522,9.204c-1.363-0.016-0.865-1.656-0.868-2.432c-0.009-3.827,0.029-7.086,0-10.245
		c-0.022-2.587,0.316-6.051-1.042-7.815c-2.809,0.026-2.217,3.454-3.473,5.035c-1.703-0.207-0.181-3.639-1.91-3.819
		c-2.277,0.735-3.727,2.976-4.168,5.383c-0.829,4.528,0.69,11.188-0.694,15.109c-1.57-0.331-1.042-2.643-1.042-4.343
		c0-3.776,0.989-14.336-2.778-13.893c-2.235,0.263-1.301,7.024-1.389,9.031c-0.144,3.255,0.139,6.89-0.695,9.029
		c-1.539-1.441-0.868-4.078-0.868-6.078C489.173,75.666,489.307,68.055,486.047,64.264"/>
</g>
<g>
	<g>
		<polygon fill="#791B6C" points="561.222,10.56 561.228,10.559 561.239,10.516 		"/>
		<path fill="#791B6C" d="M562.42,10.635l0.009,0.004C562.431,10.629,562.437,10.618,562.42,10.635z"/>
		<path fill="#791B6C" d="M558.87,17.307l-0.008,0.002c0.003,0.003,0.006,0.006,0.008,0.01L558.87,17.307z"/>
		<path fill="#791B6C" d="M558.814,17.337c-0.024-0.012,0.03-0.025,0.048-0.029c-0.019-0.023-0.054-0.023-0.102-0.012
			C558.736,17.323,558.813,17.317,558.814,17.337z"/>
		<path fill="#791B6C" d="M563.342,11.252c-0.013,0.008-0.022,0.018-0.031,0.027l0,0.004L563.342,11.252z"/>
		<path fill="#791B6C" d="M563.204,12.826c0.005,0.001,0.009,0.004,0.014,0.004c0.013-0.021,0.015-0.076,0.012-0.146l-0.051-0.003
			L563.204,12.826z"/>
		<path fill="#791B6C" d="M563.335,11.461l-0.032,0.061c-0.022-0.095-0.044-0.181,0.009-0.242c0.002-0.216,0.018-0.449,0.051-0.68
			c-0.073-0.017-0.137-0.039-0.188-0.066l-0.111,0.082c-0.062-0.003-0.09-0.122-0.198-0.008l-0.168,0.039
			c-0.091-0.004-0.166,0.044-0.253,0l0,0l-0.017-0.009l-0.001,0.007c-0.201-0.03-0.019,0.072-0.245,0.032
			c-0.069-0.055-0.099,0.104-0.204,0.088l-0.109-0.111c-0.124-0.062-0.142,0.053-0.32,0.058c-0.086-0.039-0.13-0.135-0.076-0.223
			c-0.075,0.107-0.034,0.069-0.136,0.122c-0.017-0.043-0.006-0.052,0.016-0.091c-0.093-0.048-0.055,0.04-0.124,0.039
			c-0.018,0.082-0.038,0.211-0.06,0.217l0.027,0.025c-0.072,0.045-0.151,0.067-0.237,0.029l0.002-0.041l-0.09,0.023l-0.007-0.052
			l-0.129,0.019l0.018,0.014c-0.03,0.008-0.129,0.028-0.187,0.002l0.001-0.029c-0.163-0.086-0.293,0.036-0.481,0.05l0.023-0.06
			c-0.066-0.057-0.015,0.092-0.092,0.064l-0.006-0.072c-0.065,0.097-0.087-0.018-0.135-0.053l0.024,0.095
			c-0.02-0.006-0.085-0.011-0.13-0.017c-0.165-0.027-0.122-0.117-0.101-0.168l-0.106,0.078l-0.044-0.083
			c-0.062,0.099-0.095-0.014-0.234,0.043c-0.026-0.031,0.007-0.05-0.053-0.062c-0.072,0.042-0.137,0.083-0.196,0.124l0.123-0.056
			l0.042,0.122c-0.094,0.096-0.205-0.008-0.29,0.028l0.047-0.038c-0.152,0.034-0.198-0.017-0.323-0.042
			c0.051,0.021,0.124,0.053,0.069,0.071c-0.045,0.008-0.065-0.042-0.126-0.054c0.048,0.064,0.009,0.106-0.08,0.103
			c-0.001,0.02-0.005,0.039-0.013,0.054c-0.012-0.012-0.023-0.025-0.031-0.039c0.014,0.041,0.036,0.074,0.017,0.105l-0.094-0.109
			l0.091,0.171c-0.024,0.044,0.046,0.184-0.017,0.132l-0.019-0.05l-0.01,0.48l-0.073-0.022c0.102,0.086-0.031,0.271,0.094,0.286
			c-0.066,0.083,0.058,0.369-0.085,0.309l0.001,0.063l0.003,0.033c0.003,0.021,0.008,0.041,0.013,0.061l0.039,0.114
			c0.026,0.076,0.045,0.158,0.013,0.272c-0.117,0.084-0.073,0.304-0.082,0.45c0.057,0.284,0.107,0.466,0.153,0.757
			c-0.162,0.179,0.069,0.435-0.021,0.626l0.068,0.05c-0.102,0.128,0.032,0.316-0.067,0.494c0.03,0.042,0.04,0.065,0.043,0.075
			c0.003-0.008,0.015-0.02,0.057-0.025c-0.028,0.051,0.012,0.151-0.073,0.146l-0.009-0.013c-0.084-0.005,0.043,0.151-0.028,0.209
			l0.089-0.033l-0.013,0.095l-0.018-0.025c0.053,0.102,0.075,0.191,0.081,0.272c0.003,0.041,0.002,0.08,0,0.118l-0.012,0.155
			c-0.018,0.242-0.036,0.522,0.062,0.782c-0.099-0.017,0.054,0.087-0.051,0.175c-0.103,0.221-0.017,0.281,0.041,0.328
			c0.04-0.015,0.078-0.028,0.11-0.036c0.005-0.006,0.012-0.012,0.027-0.02L559,17.283c-0.236,0.142,0.244-0.119,0.037,0.002
			c0.259,0.044,0.624,0.034,0.983,0.018c0.236-0.014,0.447-0.033,0.663-0.015l-0.019-0.035c0.108,0.004,0.24-0.042,0.323,0.012
			c0.083,0.053,0.176-0.093,0.207-0.1c0.088-0.062,0.172,0.055,0.133,0.05c0.095-0.019,0.181-0.145,0.315-0.096
			c0.048,0.114,0.358-0.122,0.365,0.007l0.001-0.011c0.172,0.087,0.328-0.073,0.512,0.006c0,0-0.003,0.01-0.009,0.018l0.361-0.403
			l-0.017-0.063l0.016,0l-0.022-0.874c0.045-0.122,0.138-0.275,0.139-0.325c0.062-0.081-0.02-0.178,0.009-0.278
			c0.012-0.159,0.072-0.081,0.114-0.162c0.029-0.1-0.059,0.021-0.063-0.018l0.068-0.121c0.008,0.069,0.038,0.031,0.057,0.017
			c0.006-0.103,0.095-0.267-0.007-0.297c0.045-0.14,0.086-0.142,0.089-0.201c-0.018,0.02-0.034,0.06-0.054,0.061
			c0.044-0.057-0.012-0.026-0.021-0.003c-0.046-0.083,0.174-0.444,0.062-0.459l0.02,0c-0.084-0.017-0.164,0.016-0.211-0.042
			l0.036-0.041l-0.037-0.058c0.026-0.041,0.048-0.021,0.059-0.022c-0.041-0.096,0.001-0.232,0.01-0.35l-0.223,0.13
			c0.05-0.1,0.151-0.282,0.078-0.299l0.075-0.061c0.141-0.202-0.067-0.137-0.025-0.217l0.08-0.102l0.001,0.099
			c0.04-0.1,0.066-0.141,0.117-0.221l-0.002-0.001c-0.003,0.006-0.007,0.009-0.012,0.01l-0.002-0.014
			c-0.042-0.011-0.072-0.062-0.071-0.132c0.009-0.1-0.054-0.175,0.03-0.336l-0.086-0.038l0.047-0.12l0.067-0.002
			c-0.001,0.116,0.03,0.335,0.038,0.485l0.031,0.002c-0.002-0.089-0.035-0.189-0.03-0.248c0.013-0.029,0.081-0.104,0.128-0.052
			l-0.067-0.053C563.277,12.056,563.272,12,563.335,11.461z"/>
		<polygon fill="#791B6C" points="563.118,13.495 563.117,13.502 563.166,13.473 		"/>
		<path fill="#791B6C" d="M563.172,14.914c-0.001,0.024,0.002,0.045,0.013,0.06C563.195,14.907,563.186,14.904,563.172,14.914z"/>
	</g>
	<g>
		<path fill="#791B6C" d="M562.736,41.286l-0.081,0.009C562.697,41.294,562.72,41.291,562.736,41.286z"/>
		<path fill="#791B6C" d="M564.945,16.815l0.105-0.004c-0.052-0.011-0.09-0.015-0.114-0.015
			C564.936,16.802,564.939,16.808,564.945,16.815z"/>
		<path fill="#791B6C" d="M581.381,40.46l-0.136-0.96l-0.112-0.736l-0.183-1.095c-0.397-2.746-1.481-5.804-2.693-8.747
			c-0.08-0.284-0.808-1.894-1.736-3.399c-0.909-1.517-2.03-2.896-2.231-3.102c0.131,0.217,0.26,0.435,0.385,0.655
			c-0.752-0.941-1.332-1.61-1.915-2.221c-0.584-0.608-1.172-1.161-2.015-1.772l0.105,0.053c-0.113-0.101-0.234-0.139-0.649-0.416
			c-0.424-0.267-1.104-0.817-2.573-1.676l0.004-0.009c-0.108-0.049-0.115-0.029-0.32-0.15c0.171,0.098,0.34,0.198,0.506,0.303
			c-0.327-0.129-0.624-0.212-1.06-0.377c-0.088-0.047-0.112-0.078-0.115-0.097c-0.359-0.13-0.724-0.248-1.093-0.348l-0.323-0.157
			c-0.353-0.045-0.222,0.107-1.127-0.143c0.331,0.154-0.467-0.018-0.36,0.053c-0.045-0.019-0.148-0.051-0.232-0.078
			c-0.552-0.072-1.6-0.069-1.855-0.002c-0.001,0.001,0.543,0.032,1.144,0.138c0.603,0.101,1.255,0.284,1.522,0.392
			c-0.742-0.16-0.198-0.025-0.058,0.034l0.054-0.014c0.439,0.114,0.424,0.177,0.638,0.247c0.001-0.005-0.004-0.012-0.009-0.02
			l-0.03,0.001c-0.018-0.016-0.004-0.02,0.021-0.02c-0.002-0.014,0.021-0.019,0.139,0.015l-0.024,0
			c0.185,0.038,0.495,0.138,0.628,0.185l-0.013,0.049c0.134,0.002,0.477,0.129,0.859,0.311c-1.559-0.611-3.188-0.92-4.86-0.877
			c-0.03,0.001-0.059,0.005-0.089,0.005c-0.174-0.117-0.351-0.234-0.535-0.343c-0.631-0.071-1.277-0.091-1.928-0.062
			c-1.691,0.412-3.274,1.167-4.679,2.137c-1.16,0.72-2.227,1.583-3.197,2.538c-2.269,2.42-3.939,5.297-5.183,8.302l-0.172,0.682
			c-0.875,1.723-1.392,4.14-1.926,6.126l0.074,0.059c-0.113,0.568-0.153,0.52-0.196,0.658c-0.126,0.663-0.236,1.331-0.328,2.003
			c-0.047,0.336-0.089,0.672-0.127,1.009l-0.06,0.555l-0.086,0.898l-0.04,0.448l-0.02,0.223c0,0.018-0.007,0.04-0.002,0.053
			l0.057-0.002l0.113-0.003l0.901-0.025l1.284-0.04l1.98-0.066c2.626-0.084,5.186-0.152,7.574-0.16
			c0.462,0.044,1.862-0.025,2.224,0.024c1.548-0.142,3.191-0.183,4.745-0.213l-0.059,0.011l0.731-0.035
			c0.031,0.007,0.035,0.017,0.012,0.023c0.823-0.096,2.125-0.055,3.136-0.051l-0.059,0.011c2.947-0.068,5.788-0.177,8.623-0.272
			l4.261-0.127l1.119-0.026l0.964-0.024C581.065,40.756,581.59,40.917,581.381,40.46z"/>
		<path fill="#791B6C" d="M566.643,16.714l0.024,0.009C566.679,16.689,566.638,16.688,566.643,16.714z"/>
		<path fill="#791B6C" d="M563.52,15.999c-0.205-0.027-0.129,0.003-0.012,0.041l0.354,0.042
			C563.748,16.057,563.637,16.022,563.52,15.999z"/>
		<path fill="#791B6C" d="M564.261,16.602l-0.066,0.017C564.31,16.634,564.308,16.623,564.261,16.602z"/>
	</g>
	<g>
		<path fill="#791B6C" d="M549.479,68.345l0.054,0.042c-0.017-0.028-0.031-0.046-0.043-0.056
			C549.486,68.334,549.482,68.339,549.479,68.345z"/>
		<path fill="#791B6C" d="M552.465,73.723l1.177-0.218l-1.776-2.282l0.056,0.042c-0.039-0.078-0.121-0.105-0.298-0.332
			c-0.173-0.23-0.451-0.661-0.813-1.565l0.009-0.005c-0.035-0.057-0.052-0.047-0.094-0.177l0.111,0.32
			c-0.124-0.158-0.25-0.289-0.387-0.518c-0.017-0.055-0.008-0.082,0.004-0.096l-0.322-0.571l-0.034-0.208
			c-0.12-0.163-0.207-0.018-0.372-0.535c0,0.225-0.167-0.216-0.183-0.135c-0.001-0.03-0.011-0.093-0.018-0.145
			c-0.147-0.284-0.415-0.826-0.52-0.945c-0.005,0.001,0.323,1.234,0.388,1.584c-0.174-0.423-0.063-0.103-0.053-0.008l0.035,0.017
			c0.101,0.255,0.046,0.282,0.092,0.413c0.004-0.002,0.008-0.009,0.012-0.015l-0.015-0.012c0.004-0.016,0.014-0.013,0.026-0.003
			c0.01-0.009,0.025-0.002,0.055,0.066l-0.012-0.01c0.06,0.098,0.143,0.278,0.178,0.356l-0.044,0.025
			c0.065,0.051,0.156,0.245,0.252,0.478c-0.462-0.842-0.902-1.745-1.319-2.718c-0.007-0.016-0.013-0.034-0.02-0.049l0.219-0.429
			c-0.032-0.384-0.059-0.767-0.079-1.148c-0.376-0.911-0.719-1.84-1.035-2.779c-0.189-0.769-0.359-1.543-0.515-2.32l-0.184-0.698
			l-0.221-0.891l-0.162-0.679l-0.081-0.338l-0.01-0.042l-0.005-0.021c-0.005-0.003-0.014,0.001-0.02,0.002l-0.086,0.016
			l-0.172,0.032l-1.3,0.239l-2.874,0.54l-0.394,0.17c-0.33,0.011-0.679,0.054-1.04,0.113l-0.548,0.1l-0.248,0.049l-0.047,0.013
			c0.057,0.036-0.335-0.183-0.589-0.307c-0.277-0.139-0.555-0.269-0.844-0.391l-0.054,0.071c-0.39-0.111-0.363-0.144-0.464-0.183
			c-0.25-0.051-0.559-0.058-0.792-0.035c-0.241,0.021-0.464,0.057-0.681,0.1c-0.433,0.087-0.844,0.199-1.249,0.321l-0.306,0.096
			l-0.521,0.172l-0.508,0.181l-0.252,0.091c-0.011,0.073,0.029,0.174,0.042,0.259l0.222,1.055l0.134,0.594
			c0.353,1.567,0.681,3.098,0.935,4.538c0.004,0.287,0.215,1.118,0.204,1.346c0.299,0.906,0.508,1.89,0.696,2.821l-0.017-0.034
			l0.109,0.434c-0.003,0.02-0.012,0.024-0.021,0.012c0.178,0.478,0.272,1.271,0.372,1.882l-0.016-0.034
			c0.369,1.765,0.767,3.457,1.152,5.149l0.237,1.018l0.065,0.282l0.009,0.034l0.036,0.001l0.072,0.001l0.144,0.002l0.578,0.004
			l0.516-0.012l0.339-0.016c0.227-0.013,0.455-0.03,0.686-0.054c0.466-0.055,0.924-0.104,1.467-0.303
			c0.157-0.064,0.242-0.108,0.359-0.165c0.112-0.055,0.228-0.117,0.347-0.191c0.238-0.142,0.498-0.365,0.68-0.6
			c0.181-0.211,0.308-0.418,0.425-0.615l0.166-0.295l0.033-0.061l0.005-0.007l0.009-0.013c0.004-0.012,0.014-0.015,0.025-0.016
			l0.14-0.028l0.677-0.139c0.911-0.189,1.851-0.386,2.799-0.507c0.18,0.009,1.215-0.182,2.246-0.388l1.436-0.296l1.091-0.239
			l-0.433,0.03l-0.206,0.013c-0.058,0.002-0.082-0.002-0.125-0.003l0.654-0.134L552.465,73.723z"/>
		<path fill="#791B6C" d="M550.454,68.892l0.007,0.013C550.492,68.887,550.47,68.875,550.454,68.892z"/>
		<path fill="#791B6C" d="M549.566,67.284c-0.047-0.109-0.048-0.059-0.04,0.014l0.094,0.183L549.566,67.284z"/>
		<path fill="#791B6C" d="M549.341,67.93l-0.042-0.021C549.336,67.969,549.345,67.962,549.341,67.93z"/>
	</g>
	<g>
		<path fill="#791B6C" d="M591.148,56.842C591.119,56.835,591.104,56.839,591.148,56.842L591.148,56.842z"/>
		<path fill="#791B6C" d="M590.554,75.861l-0.008,0.037c0.01,0.03,0.019,0.059,0.024,0.087L590.554,75.861z"/>
		<path fill="#791B6C" d="M586.926,76.785l-0.021-0.009C586.904,76.786,586.897,76.795,586.926,76.785z"/>
		<polygon fill="#791B6C" points="585.325,57.242 585.339,57.242 585.306,57.227 		"/>
		<path fill="#791B6C" d="M585.339,57.242c0.075,0.037,0.154,0.053,0.237,0.057c0.004-0.026-0.149-0.049-0.181-0.075
			C585.465,57.25,585.371,57.245,585.339,57.242z"/>
		<path fill="#791B6C" d="M579.926,62.724l-0.033-0.031C579.904,62.714,579.915,62.722,579.926,62.724z"/>
		<path fill="#791B6C" d="M584.465,74.607c0.009-0.009,0.016-0.018,0.021-0.026l-0.001-0.003L584.465,74.607z"/>
		<path fill="#791B6C" d="M580.812,73.696c-0.005,0.004-0.015,0.006-0.017,0.011c0.068,0.027,0.253,0.065,0.492,0.109l0.024-0.047
			L580.812,73.696z"/>
		<path fill="#791B6C" d="M594.293,57.711l-0.028-0.009l-0.111-0.039l-0.215-0.078c-0.139-0.053-0.272-0.107-0.4-0.162l-0.327-0.037
			c-0.072-0.036-0.197-0.085-0.237-0.104c-0.058-0.024-0.119-0.047-0.184-0.068c-0.129-0.043-0.272-0.079-0.421-0.115
			c-0.298-0.073-0.62-0.143-0.933-0.252c-0.164,0-0.25-0.003-0.289-0.006c0.03,0.007,0.074,0.026,0.081,0.071
			c-0.177-0.064-0.586-0.055-0.557-0.135l0.053-0.006c0.017-0.04-0.138-0.045-0.356-0.02c-0.218,0.024-0.435,0.086-0.556,0.08
			l0.144,0.058c-0.129,0.023-0.253,0.053-0.374,0.085l0.092-0.046c-0.4,0.175-0.702,0.334-0.983,0.474l-0.402,0.204l-0.096,0.049
			l-0.035,0.016l-0.059,0.024c-0.019-0.004-0.038-0.012-0.056-0.017l-0.027-0.008l-0.013-0.004l-0.042-0.009
			c-0.119-0.025-0.242-0.049-0.369-0.07c-0.255-0.042-0.532-0.075-0.852-0.088c0.192-0.065-0.268,0.004-0.267-0.105
			c-0.308-0.193-0.62-0.082-0.898-0.095c-0.001,0.005-0.005,0.011-0.022,0.016l-0.474-0.098c0.308-0.082-0.362,0.049-0.081-0.017
			c-0.611-0.162-1.326-0.29-2.067-0.416l-0.845-0.145l-0.461-0.08c-0.037-0.005-0.079-0.017-0.112-0.016l-0.026,0.115l-0.053,0.229
			l-0.215,0.907c-0.049,0.196-0.092,0.363-0.143,0.54l0.049-0.053c-0.095,0.355-0.168,0.807-0.294,1.062
			c-0.125,0.254-0.074,0.61-0.099,0.716c-0.023,0.311-0.218,0.544-0.175,0.42c-0.074,0.317-0.043,0.648-0.229,1.065
			c-0.15,0.114-0.273,1.21-0.403,1.181l0.009,0.008c-0.273,0.518-0.314,1.084-0.617,1.636c0,0-0.005-0.015-0.005-0.038
			c-0.031,0.441-0.068,0.884-0.116,1.328l0.079-0.025c-0.007,0.016-0.014,0.034-0.021,0.05c-0.416,0.969-0.853,1.867-1.313,2.707
			c-0.243,0.34-0.587,0.749-0.68,0.891c-0.196,0.201-0.305,0.53-0.519,0.798c-0.312,0.444-0.211,0.185-0.4,0.385
			c-0.218,0.261,0.088-0.023,0.014,0.091l-0.291,0.292c0.132-0.195,0.032-0.109-0.009-0.085l-0.086,0.11l-0.11,0.134l-0.293,0.35
			c-0.186,0.23-0.349,0.431-0.323,0.484c-0.362,0.401-0.512,0.536-0.64,0.672c0.023,0.024,0.094,0.032,0.169,0.05
			c-0.033-0.019-0.116-0.034-0.138-0.062c0.054-0.053,0.098-0.095,0.116-0.102l-0.093,0.093c0.01,0.021,0.047,0.016,0.046,0.014
			c0.01-0.006-0.015-0.009-0.006-0.028c0.027-0.024,0.056-0.052,0.078-0.077c-0.011,0.017-0.025,0.038-0.044,0.063
			c0.239,0.053,0.699,0.176,1.158,0.301c0.229,0.061,0.458,0.119,0.635,0.156l0.118,0.022c0.024,0.004,0.045,0.007,0.063,0.008
			c0.037,0.002,0.061-0.002,0.071-0.014l-0.004,0.02c0.082-0.069-0.01-0.169,0.199-0.176l0.127,0.062l0.208,0.003
			c0.13,0.052,0.06,0.061,0.058,0.071c0.335,0.024,0.785,0.156,1.181,0.242l-0.379-0.302c0.326,0.115,0.912,0.334,0.992,0.275
			l0.187,0.113c0.646,0.27,0.482,0.027,0.742,0.121l0.323,0.145l-0.336-0.065c0.329,0.105,0.458,0.157,0.716,0.261
			c0-0.001,0.003-0.001,0.003-0.001c-0.018-0.007-0.029-0.013-0.031-0.018l0.047,0.007c0.049-0.033,0.229-0.028,0.465,0.02
			c0.334,0.075,0.609,0.065,1.13,0.253l0.15-0.058l0.394,0.126l-0.013,0.067c-0.394-0.079-1.143-0.195-1.651-0.287l-0.015,0.028
			c0.301,0.057,0.649,0.092,0.847,0.137c0.095,0.032,0.33,0.148,0.141,0.158l0.198-0.03c0.503,0.092,0.757,0.137,1.014,0.193
			l0.42,0.101l0.271,0.07l0.161,0.042c0.034,0.011,0.039,0.016,0.06,0.025c-0.004-0.013-0.01-0.025-0.017-0.038
			c0.037-0.003,0.079-0.005,0.11,0c0.025,0.013,0.023,0.052,0.009,0.077l0.029,0.069l0.101,0.212l0.216,0.448
			c0.144,0.299,0.366,0.624,0.572,0.837c0.049,0.005,0.098,0.01,0.146,0.011c0.139,0.111,0.294,0.336,0.413,0.272
			c0.103,0.042,0.202,0.078,0.301,0.113c0.229,0.11,0.372,0.106,0.597,0.212h0.001l0.042,0.02c0.001-0.002,0-0.005-0.001-0.007
			c0.453,0.129,0.013-0.061,0.522,0.073c0.157,0.08,0.195-0.073,0.436-0.028l0.234,0.137c0.219,0.051,0.35,0.046,0.504,0.034
			c0.172-0.014,0.256-0.032,0.832-0.028c0.495,0.037,0.851,0.124,0.534,0.218c0.434-0.115,0.246-0.004,0.379-0.638
			c0.059-0.069,0.053,0.001,0.053,0.174c0.179-0.561,0.048-0.385,0.148-0.813c-0.056-0.122-0.172-0.2-0.159-0.286l-0.044,0.085
			c0.011-0.256,0.048-0.529,0.149-0.808l0.038,0.02l0.045-0.31l0.055-0.008l0.078-0.439l-0.026,0.057
			c0.015-0.104,0.069-0.444,0.137-0.631l0.027,0.013c0.204-0.523,0.184-0.995,0.31-1.632l0.04,0.096
			c0.104-0.204-0.077-0.078,0.008-0.33l0.074,0.002c-0.045-0.247,0.082-0.289,0.151-0.438l-0.109,0.053l0.083-0.29
			c0.1-0.318,0.16-0.174,0.199-0.116l-0.026-0.237l0.091-0.026c-0.061-0.181,0.05-0.158,0.059-0.452
			c0.036-0.016,0.039,0.059,0.072-0.034l-0.016-0.491l-0.009,0.292l-0.112-0.059c-0.029-0.313,0.098-0.394,0.109-0.611l0.005,0.152
			c0.044-0.348,0.099-0.355,0.167-0.542c-0.035,0.055-0.088,0.139-0.074-0.003c0.015-0.103,0.054-0.046,0.088-0.139
			c-0.075-0.04-0.065-0.294,0.02-0.508c0.011,0.005,0.021,0.013,0.025,0.028c-0.001-0.059-0.015-0.093,0.025-0.188l0.077,0.077
			l-0.044-0.208c0.051-0.121,0.026-0.32,0.083-0.29l0.002,0.076l0.227-0.954l0.074,0.002c-0.078-0.116,0.149-0.515,0.02-0.509
			c0.105-0.167,0.105-0.722,0.22-0.586c0.145-0.628,0.085-0.996,0.316-1.748c0.175-0.247,0.297-1.003,0.414-1.492
			c0.157-0.971,0.245-1.602,0.418-2.592c0.072-0.139,0.125-0.301,0.166-0.476c0.021-0.087,0.039-0.178,0.055-0.27l0.065-0.386
			l0.164-0.964l0.011-0.059C594.291,57.729,594.3,57.716,594.293,57.711z"/>
		<polygon fill="#791B6C" points="578.572,73.167 578.547,73.161 578.631,73.228 		"/>
		<path fill="#791B6C" d="M576.057,70.762c0.049-0.066,0.089-0.125,0.109-0.174C576.027,70.767,576.027,70.779,576.057,70.762z"/>
	</g>
	<polyline fill-rule="evenodd" clip-rule="evenodd" fill="#791B6C" stroke="#1D203D" stroke-miterlimit="10" points="
		577.804,65.267 573.452,67.773 570.441,64.646 562.271,51.606 566.494,48.959 569.739,52.819 573.94,58.971 576.804,63.241 
		578.072,65.102 	"/>
	<g>
		<path fill="#791B6C" d="M546.458,66.342l-0.043-0.104C546.434,66.293,546.447,66.322,546.458,66.342z"/>
		<path fill="#791B6C" d="M583.49,46.947l-0.135,0.029c0.071-0.002,0.12-0.007,0.153-0.013
			C583.505,46.958,583.5,46.953,583.49,46.947z"/>
		<path fill="#791B6C" d="M586.551,46.541l-0.009-0.447l-0.01-0.274c-0.014-0.343-0.03-0.63-0.05-0.761l-0.043,0.582l-0.021,0.282
			l-0.012,0.154l-0.012,0.228l-0.053,0.913l-0.697-0.044c-0.21-0.014-0.446-0.029-0.572-0.044c-0.294-0.028-0.542-0.055-0.7-0.077
			c1.001,0.028,0.264-0.011,0.067-0.044l-0.067,0.024c-0.6-0.025-0.6-0.086-0.899-0.103c0,0.005,0.009,0.011,0.018,0.017
			l0.038-0.008c0.028,0.011,0.012,0.018-0.02,0.024c0.007,0.013-0.02,0.023-0.184,0.019l0.031-0.007
			c-0.237,0.009-0.634-0.001-0.818-0.006l-0.053-0.051c-0.013,0.008-0.043,0.001-0.054,0.018c0.042,0.194,0.053,0.599,0.049,1.069
			c-0.034-0.693-0.066-1.091-0.066-1.091l3.63,0.006l-0.004-1.86c-0.037-0.004-0.082-0.008-0.124-0.012
			c-0.213-0.143-0.43-0.283-0.649-0.419c-0.81-0.164-1.618-0.307-2.427-0.447c-2.201-0.033-4.396-0.035-6.591-0.032l-5.253-0.171
			c-4.262-0.001-8.523,0.019-12.783,0.053l-0.913,0.102c-2.513-0.158-5.732,0.062-8.441-0.028l-0.055,0.085
			c-0.763,0.014-0.712-0.038-0.901-0.051c-1.331,0.021-2.668,0.048-4.009,0.087c-0.731,0.027-1.107,0.022-2.537,0.109l-0.223,0.014
			c-0.018,0.001-0.038,0.001-0.055,0.004v0.057v0.113v0.45v0.867l0.01,1.666l3.495-0.025l-0.025,0.519l-0.044,1.198
			c-0.023,0.796-0.034,1.584-0.035,2.363c-0.001,1.559,0.037,3.083,0.114,4.56c-0.023,0.625,0.19,2.51,0.202,3.003
			c0.357,2.077,0.761,4.274,1.383,6.316l-0.033-0.075c0.105,0.318,0.212,0.635,0.33,0.95c0.008,0.043,0,0.051-0.017,0.023
			c0.225,0.524,0.49,1.206,0.812,1.908c0.321,0.702,0.699,1.422,1.101,2.019l-0.055-0.063c0.596,0.877,1.307,1.625,2.041,2.312
			c0.74,0.685,1.529,1.301,2.348,1.858c1.641,1.112,3.407,1.987,5.255,2.628c1.849,0.635,3.788,1.035,5.774,1.102
			c1.993,0.069,3.995-0.241,5.93-0.827c1.815-0.507,3.678-1.393,5.414-2.59c0.868-0.598,1.706-1.274,2.489-2.029
			c0.391-0.38,0.766-0.771,1.127-1.198c0.361-0.429,0.688-0.88,0.99-1.342c0.124-0.162,0.506-0.765,0.909-1.629
			c0.406-0.862,0.822-1.983,1.145-3.121c0.657-2.275,0.955-4.595,0.99-4.971l-0.254,0.966c0.236-1.577,0.372-2.732,0.482-3.833
			c0.107-1.101,0.179-2.148,0.186-3.503l0.017,0.15c0.018-0.197-0.025-0.353-0.029-1.002c-0.009-0.65,0.039-1.79,0.117-3.974h0.01
			c-0.007-0.151-0.026-0.15-0.01-0.453l-0.039,0.756c-0.038-0.451-0.1-0.843-0.135-1.444c0.005-0.128,0.023-0.173,0.039-0.187
			l-0.007-0.111l-0.003-0.03l-0.007-0.062l-0.014-0.128c0.034-0.005,0.076-0.004,0.116-0.007c0.056,0.022,0.075,0.044,0.129,0.066
			c0.447-0.035,0.243-0.175,1.439-0.095c-0.447-0.098,0.584-0.057,0.455-0.106l0.502,0.047l0.841-0.008L586.551,46.541z"/>
		<path fill="#791B6C" d="M583.114,47.875l0.002,0.033C583.151,47.905,583.135,47.857,583.114,47.875z"/>
		<path fill="#791B6C" d="M585.066,47.455l0.281,0.018l0.38,0.018c0.445,0.003,0.259-0.018-0.002-0.042L585.066,47.455z"/>
		<path fill="#791B6C" d="M584.439,47.009l0.082-0.028C584.366,46.987,584.372,46.997,584.439,47.009z"/>
	</g>
	<g>
		<path fill="#791B6C" d="M557.212,42.065C557.252,42.067,557.271,42.061,557.212,42.065L557.212,42.065z"/>
		<path fill="#791B6C" d="M551.297,38.578l0.03-0.001c0.021-0.018,0.041-0.033,0.06-0.044L551.297,38.578z"/>
		<path fill="#791B6C" d="M556.222,38.556l0.03,0.004C556.249,38.551,556.255,38.54,556.222,38.556z"/>
		<path fill="#791B6C" d="M539.479,39.339c-0.005-0.044-0.009-0.088-0.012-0.147C539.468,39.263,539.473,39.306,539.479,39.339z"/>
		<polygon fill="#791B6C" points="566.229,41.743 566.208,41.745 566.261,41.754 		"/>
		<path fill="#791B6C" d="M566.095,41.768c0.005,0.002,0.015,0.004,0.036,0.006C566.123,41.772,566.11,41.77,566.095,41.768z"/>
		<path fill="#791B6C" d="M566.208,41.745c-0.12-0.02-0.24-0.018-0.362-0.005c0.001,0.022,0.165,0.019,0.249,0.028
			C566.076,41.759,566.17,41.749,566.208,41.745z"/>
		<path fill="#791B6C" d="M580.007,41.291l-0.027,0.042C580.004,41.314,580.009,41.302,580.007,41.291z"/>
		<path fill="#791B6C" d="M560.77,38.467c0.002,0.013,0.013,0.022,0.025,0.03h0.013L560.77,38.467z"/>
		<path fill="#791B6C" d="M567.013,38.485c0.005-0.005,0.02-0.01,0.021-0.015c-0.107-0.011-0.389-0.007-0.748,0.004l-0.021,0.051
			L567.013,38.485z"/>
		<path fill="#791B6C" d="M584.485,40.808l-0.081-0.062l0.08-0.002l-0.058-2.274l-2.206,0.057c-0.619-0.032-1.396-0.109-1.651-0.105
			c-0.41-0.053-0.914,0.04-1.424,0.02c-0.812,0.005-0.408-0.064-0.817-0.097c-0.51-0.019,0.105,0.057-0.1,0.065l-0.612-0.055
			c0.354-0.015,0.161-0.041,0.096-0.059c-0.527,0.005-1.361-0.067-1.52,0.038c-0.712-0.03-0.715-0.071-1.02-0.068
			c0.103,0.016,0.306,0.027,0.308,0.048c-0.286-0.038-0.136,0.014-0.019,0.021c-0.434,0.055-2.26-0.127-2.348-0.013l-0.001-0.02
			c-0.099,0.086,0.066,0.162-0.237,0.216l-0.203-0.032l-0.304,0.044c-0.205-0.022-0.105-0.046-0.106-0.057
			c-0.495,0.051-1.19,0.023-1.792,0.028l0.643,0.21c-0.509-0.04-1.427-0.122-1.527-0.047l-0.307-0.068
			c-1.021-0.119-0.709,0.081-1.116,0.047l-0.513-0.069l0.509-0.012c-0.51-0.029-0.714-0.051-1.121-0.094
			c0,0.001-0.004,0.001-0.004,0.002c0.028,0.003,0.046,0.007,0.05,0.011l-0.071,0.004c-0.061,0.043-0.325,0.078-0.684,0.084
			c-0.509,0.001-0.905,0.073-1.72,0.006l-0.201,0.09l-0.611-0.035l-0.002-0.068l2.49-0.089l0.013-0.031
			c-0.456,0.012-0.973,0.055-1.274,0.056c-0.147-0.01-0.524-0.07-0.253-0.123l-0.28,0.073c-1.52,0.047-1.53,0.05-3.119,0.014
			l0.139,0.03c-0.314,0.028-0.628,0.055-0.717,0.003c-0.953,0.014-1.941-0.004-2.562-0.073l-0.133,0.083
			c-0.202,0.001-0.506-0.111-0.601,0.002l-0.429,0.046c-0.275,0.001-0.442,0.051-0.757,0.013h-0.002l-0.059-0.008
			c0,0.003,0.002,0.005,0.004,0.007c-0.623-0.019,0.008,0.071-0.706,0.044c-0.23-0.051-0.25,0.108-0.598,0.098l-0.352-0.105
			c-0.631-0.049-0.736,0.068-1.648,0.092c-0.439-0.03-0.653-0.121-0.365-0.215c-0.396,0.115-0.18,0.073-0.707,0.137
			c-0.082-0.041-0.026-0.051,0.089-0.094c-0.471-0.038-0.289,0.047-0.643,0.053c-0.101,0.083-0.216,0.216-0.331,0.224l0.138,0.022
			c-0.374,0.053-0.783,0.084-1.22,0.054l0.015-0.041l-0.463,0.032l-0.03-0.051l-0.662,0.034l0.091,0.011
			c-0.156,0.011-0.666,0.042-0.958,0.022l0.01-0.029c-0.827-0.069-1.503,0.067-2.468,0.101l0.125-0.063
			c-0.33-0.05-0.088,0.094-0.48,0.075l-0.021-0.073c-0.342,0.104-0.447-0.009-0.685-0.038l0.114,0.092l-0.448-0.009
			c-0.494-0.018-0.306-0.112-0.235-0.164l-0.334,0.083l-0.068-0.082c-0.243,0.104-0.246-0.01-0.674,0.054
			c-0.036-0.031,0.072-0.052-0.075-0.062l-0.706,0.137l0.426-0.063l-0.049,0.124c-0.443,0.105-0.603,0.002-0.92,0.045l0.218-0.042
			c-0.259,0.022-0.396,0.019-0.505,0.009l-0.154-0.018l-0.083-0.011l-0.172-0.007c0.08,0.009,0.191,0.021,0.196,0.034
			c0.008,0.013,0.036,0.024-0.153,0.038c-0.259,0.013-0.148-0.04-0.408-0.046c-0.03,0.066-0.402,0.116-0.84,0.122
			c0.001,0.109,0,0.22-0.005,0.327c-0.012-0.015-0.024-0.036-0.032-0.078c0.017,0.156,0.04,0.24,0.027,0.48l-0.096-0.197l0.1,0.53
			c-0.004,0.079-0.002,0.17,0.002,0.259l0.006,0.101l0.007,0.073c0.008,0.091,0.011,0.155-0.02,0.143l-0.021-0.109l0.03,1.908
			l0.302-0.005l-0.018,0.073c0.169-0.054,0.509-0.053,0.822-0.055c0.147-0.001,0.32-0.003,0.385-0.011
			c0.056-0.008,0.088-0.024,0.075-0.054c0.277,0.061,1.081-0.076,0.923,0.069c0.958-0.014,1.472-0.162,2.637-0.124
			c0.418,0.109,1.552,0.041,2.3,0.034c1.459-0.087,2.401-0.156,3.893-0.233c0.902,0.143,2.238-0.115,3.206-0.046l0.263-0.073
			c0.645,0.089,1.622-0.065,2.525,0.014c0.22-0.034,0.336-0.046,0.387-0.05c-0.041-0.002-0.103-0.013-0.124-0.055
			c0.258,0.023,0.777-0.027,0.742,0.057l-0.065,0.011c-0.036,0.085,0.779-0.059,1.068,0.006l-0.16-0.086l0.487,0.003l-0.13,0.02
			c2.111-0.254,3.075,0.007,5.058-0.227c-0.261,0.105,0.391-0.061,0.419,0.045c0.505,0.123,0.928-0.053,1.338-0.1
			c0-0.005,0.005-0.011,0.028-0.02l0.719-0.005c-0.425,0.146,0.515-0.126,0.123,0c1.876,0.053,4.317-0.113,6.487-0.122l-0.096-0.032
			c0.55-0.008,1.233-0.068,1.651-0.022c0.419,0.045,0.91-0.112,1.072-0.122c0.456-0.072,0.875,0.037,0.678,0.036
			c0.488-0.029,0.945-0.165,1.625-0.129c0.235,0.109,1.848-0.16,1.872-0.031l0.007-0.011c0.872,0.069,1.687-0.108,2.625-0.049
			c0,0-0.017,0.01-0.049,0.019L584.485,40.808z"/>
		<polygon fill="#791B6C" points="570.433,38.5 570.47,38.5 570.328,38.454 		"/>
		<path fill="#791B6C" d="M577.712,38.296c0.123-0.001,0.231-0.007,0.309-0.02C577.679,38.273,577.664,38.283,577.712,38.296z"/>
	</g>
	<g>
		<path fill="#791B6C" d="M555.276,8.089l0.017-0.001c0.013-0.017,0.024-0.032,0.035-0.044L555.276,8.089z"/>
		<path fill="#791B6C" d="M558.136,8.121l0.018,0.004C558.152,8.115,558.155,8.105,558.136,8.121z"/>
		<path fill="#791B6C" d="M548.174,8.606c-0.004-0.027-0.008-0.054-0.011-0.089C548.164,8.559,548.168,8.585,548.174,8.606z"/>
		<polygon fill="#791B6C" points="562.333,12.172 562.321,12.173 562.352,12.183 		"/>
		<path fill="#791B6C" d="M562.321,12.173c-0.07-0.021-0.14-0.021-0.21-0.009c0.001,0.026,0.134,0.018,0.166,0.037
			C562.213,12.191,562.293,12.177,562.321,12.173z"/>
		<path fill="#791B6C" d="M560.776,8.08c0.001,0.013,0.008,0.023,0.015,0.031h0.008L560.776,8.08z"/>
		<path fill="#791B6C" d="M564.403,8.166c0.003-0.005,0.011-0.009,0.012-0.014c-0.062-0.012-0.226-0.011-0.434-0.004l-0.012,0.051
			L564.403,8.166z"/>
		<path fill="#791B6C" d="M568.327,11.986c-0.009,0.001-0.018,0.004-0.026,0.004C568.316,11.991,568.324,11.989,568.327,11.986z"/>
		<path fill="#791B6C" d="M572.926,11.433l-0.048-0.062l0.046-0.001l-0.067-2.602c0.013-0.133,0.032-0.285,0.05-0.45
			c-0.22-0.037-0.47-0.073-0.585-0.071c-0.124-0.029-0.314-0.02-0.439-0.009c-0.14,0.012-0.287,0.027-0.435,0.015
			c-0.472-0.004-0.238-0.068-0.475-0.106c-0.297-0.024,0.061,0.058-0.057,0.064L570.56,8.15c0.206-0.011,0.093-0.039,0.055-0.058
			c-0.306-0.001-0.791-0.082-0.883,0.022c-0.414-0.038-0.416-0.079-0.593-0.079c0.06,0.017,0.178,0.031,0.179,0.051
			c-0.166-0.041-0.078,0.013-0.011,0.021c-0.251,0.051-1.314-0.152-1.364-0.039l-0.001-0.02c-0.056,0.085,0.04,0.163-0.135,0.213
			l-0.118-0.034l-0.176,0.04c-0.119-0.024-0.062-0.048-0.062-0.058c-0.288,0.045-0.691,0.01-1.04,0.008l0.376,0.217
			c-0.296-0.045-0.831-0.137-0.887-0.063l-0.179-0.072c-0.594-0.13-0.411,0.074-0.648,0.036l-0.299-0.076l0.296-0.006
			c-0.297-0.035-0.415-0.059-0.652-0.107c0,0.001-0.003,0.001-0.003,0.002c0.016,0.003,0.027,0.007,0.029,0.012l-0.041,0.003
			c-0.035,0.043-0.188,0.075-0.396,0.077c-0.295-0.004-0.525,0.063-0.999-0.013l-0.115,0.088l-0.356-0.041l-0.002-0.068
			c0.347-0.005,0.999-0.047,1.445-0.062l0.007-0.031c-0.265,0.007-0.564,0.045-0.74,0.043c-0.085-0.012-0.305-0.076-0.148-0.126
			l-0.162,0.07c-0.883,0.03-0.888,0.034-1.811-0.019l0.081,0.032c-0.182,0.024-0.364,0.048-0.416-0.005
			c-0.553,0.003-1.127-0.025-1.489-0.101l-0.077,0.082c-0.117-0.001-0.295-0.117-0.349-0.004l-0.249,0.042
			c-0.16-0.002-0.257,0.046-0.439,0.005l-0.001,0l-0.035-0.009c0,0.003,0.001,0.005,0.002,0.007
			c-0.362-0.026,0.005,0.071-0.41,0.036c-0.134-0.053-0.144,0.105-0.346,0.092l-0.206-0.109c-0.367-0.056-0.426,0.06-0.956,0.074
			c-0.255-0.034-0.38-0.128-0.214-0.219c-0.229,0.111-0.103,0.071-0.409,0.129c-0.048-0.042-0.016-0.052,0.051-0.092
			c-0.274-0.044-0.167,0.043-0.373,0.046c-0.057,0.082-0.123,0.213-0.19,0.22l0.08,0.023c-0.216,0.049-0.454,0.075-0.708,0.041
			l0.008-0.041l-0.269,0.028l-0.018-0.052l-0.384,0.026l0.053,0.013c-0.09,0.009-0.386,0.035-0.556,0.012l0.005-0.029
			c-0.481-0.078-0.872,0.05-1.432,0.075l0.072-0.061c-0.192-0.054-0.05,0.092-0.278,0.069l-0.013-0.073
			c-0.198,0.101-0.26-0.014-0.398-0.046l0.067,0.093l-0.26-0.014c-0.287-0.024-0.179-0.115-0.138-0.167l-0.193,0.08l-0.04-0.083
			c-0.14,0.101-0.143-0.012-0.391,0.047c-0.021-0.031,0.041-0.051-0.044-0.062l-0.408,0.129l0.247-0.059l-0.027,0.124
			c-0.128,0.05-0.216,0.049-0.294,0.04l-0.115-0.013c-0.04-0.003-0.068-0.002-0.157,0.009c0.082-0.014,0.116-0.027,0.158-0.041
			c-0.057,0.009-0.17,0.014-0.249,0.015s-0.141-0.002-0.197-0.007c-0.112-0.01-0.2-0.028-0.357-0.037
			c0.107,0.02,0.255,0.05,0.056,0.072c-0.147,0.011-0.105-0.041-0.262-0.05c0.011,0.065-0.188,0.111-0.445,0.112
			c0,0.063-0.003,0.125-0.009,0.184c-0.012-0.014-0.023-0.03-0.032-0.058c0.016,0.096,0.038,0.153,0.022,0.284l-0.095-0.151
			l0.095,0.343c-0.02,0.179,0.053,0.47-0.009,0.43L548.167,9.4l0.005,1.038l-0.072,0.014c0.102,0.081-0.026,0.461,0.098,0.431
			c-0.016,0.04-0.02,0.1-0.019,0.165l0.011,0.26c0.009,0.218,0.007,0.385-0.065,0.325c0.007,0.414,0.034,0.739,0.062,1.045
			c0.258-0.022,0.507-0.044,0.775-0.057c0.135-0.007,0.274-0.012,0.425-0.013c0.144-0.001,0.344-0.001,0.414,0.008
			c0.244,0.113,0.902,0.057,1.336,0.059c0.846-0.072,1.393-0.131,2.259-0.192c0.525,0.154,1.298-0.091,1.861-0.011l0.152-0.07
			c0.375,0.096,0.941-0.048,1.467,0.042c0.128-0.032,0.195-0.043,0.224-0.046c-0.024-0.003-0.06-0.014-0.073-0.056
			c0.15,0.026,0.451-0.019,0.432,0.066l-0.038,0.01c-0.02,0.084,0.452-0.051,0.62,0.017l-0.094-0.087l0.283,0.008l-0.075,0.019
			c1.223-0.232,1.786,0.04,2.935-0.172c-0.151,0.102,0.226-0.058,0.244,0.049c0.295,0.127,0.538-0.043,0.776-0.085
			c0-0.005,0.003-0.012,0.016-0.02l0.417,0.002c-0.246,0.142,0.297-0.12,0.072,0.001c1.09,0.074,2.506-0.066,3.767-0.052
			l-0.056-0.034c0.319-0.002,0.715-0.054,0.959-0.005c0.244,0.049,0.527-0.102,0.621-0.11c0.229-0.058,0.443,0.02,0.421,0.039
			c0.274-0.029,0.533-0.149,0.916-0.108c0.138,0.112,1.072-0.141,1.087-0.011l0.004-0.011c0.507,0.078,0.979-0.089,1.524-0.02
			c0,0-0.01,0.01-0.028,0.019L572.926,11.433z"/>
		<polygon fill="#791B6C" points="566.389,8.218 566.411,8.218 566.328,8.17 		"/>
		<path fill="#791B6C" d="M570.615,8.092c0.071,0,0.134-0.004,0.179-0.016C570.596,8.069,570.587,8.078,570.615,8.092z"/>
	</g>
</g>
</svg>
